<svg width="175" height="60" viewBox="0 0 175 60" fill="none" xmlns="http://www.w3.org/2000/svg">
<path d="M54.2484 22.1779H52.5984C48.3006 22.1779 44.8087 18.6887 44.8087 14.3942V12.8221C44.7703 8.48926 41.2784 5 36.9807 5C35.1004 5 33.3736 5.65184 32.0306 6.80215C30.3038 8.22086 29.191 10.4064 29.191 12.8221V14.4709C29.191 18.7653 25.6991 22.2546 21.4013 22.2546H19.828C15.4919 22.2546 12 25.7439 12 30.0383C12 30.5752 12.0384 31.112 12.1535 31.6104C12.8826 35.1764 16.0291 37.8604 19.7897 37.8604H21.4397C25.7374 37.8604 29.2294 41.3497 29.2294 45.6442V47.2163C29.2294 49.6319 30.3422 51.8175 32.0689 53.2362C33.412 54.3482 35.1388 55 37.019 55C41.3168 55 44.8087 51.5107 44.8087 47.2163V45.5675C44.8087 41.273 48.3006 37.7837 52.5984 37.7837H54.1716C57.395 37.7837 60.1962 35.8282 61.3857 32.9908C61.7694 32.0706 61.9997 31.0353 61.9997 29.9617C62.0381 25.6672 58.5461 22.1779 54.2484 22.1779ZM46.5355 32.5307C46.5355 36.365 43.4273 39.5092 39.5516 39.5092H34.4864C30.6492 39.5092 27.5026 36.4034 27.5026 32.5307V27.5077C27.5026 23.6733 30.6108 20.5291 34.4864 20.5291H39.5133C43.3505 20.5291 46.4971 23.635 46.4971 27.5077V32.5307H46.5355Z" fill="#ED1C24"/>
<path d="M34.4864 23.5199L30.534 27.4693C29.1142 28.888 29.1142 31.1503 30.534 32.5306L34.4864 36.48C35.9062 37.8987 38.1702 37.8987 39.5516 36.48L43.504 32.5306C44.9238 31.1119 44.9238 28.8496 43.504 27.4693L39.5516 23.5199C38.1702 22.1395 35.9062 22.1395 34.4864 23.5199Z" fill="#034EA2"/>
<path d="M72.5162 25.2811H67.658V22.4709H80.8831V25.2811H76.0249V37.433H72.5162V25.2811Z" fill="#ED1C24"/>
<path d="M82.7725 22.4329H86.2812V37.3949H82.7725V22.4329Z" fill="#ED1C24"/>
<path d="M89.9055 22.4329H93.4142V34.5848H101.049V37.3949H89.9055V22.4329Z" fill="#ED1C24"/>
<path d="M103.015 22.4329H106.524V37.3949H103.015V22.4329Z" fill="#ED1C24"/>
<path d="M123.952 37.3949L123.913 28.4329L119.44 35.8379H117.859L113.425 28.6227V37.3949H110.109V22.4329H113.001L118.708 31.7367L124.299 22.4329H127.19L127.229 37.3949H123.952Z" fill="#034EA2"/>
<path d="M142.613 34.6227V37.3949H130.853V22.4329H142.343V25.205H134.362V28.4708H141.418V31.167H134.362V34.6227H142.613Z" fill="#034EA2"/>
<path d="M145.389 22.4329H152.291C153.949 22.4329 155.414 22.7367 156.648 23.3443C157.92 23.9518 158.884 24.8253 159.617 25.9645C160.311 27.1037 160.658 28.3949 160.658 29.9139C160.658 31.3949 160.311 32.724 159.617 33.8632C158.923 35.0025 157.92 35.8759 156.648 36.4835C155.376 37.0911 153.91 37.3949 152.291 37.3949H145.389V22.4329ZM152.137 34.5468C153.641 34.5468 154.874 34.1291 155.761 33.2936C156.648 32.4582 157.111 31.3189 157.111 29.9139C157.111 28.4708 156.648 27.3696 155.761 26.5341C154.874 25.6987 153.641 25.281 152.137 25.281H148.937V34.5468H152.137Z" fill="#034EA2"/>
<path d="M111.127 48.764C110.661 48.6067 110.272 48.4101 110 48.1348L110.35 47.3876C110.622 47.6236 110.933 47.8202 111.322 47.9775C111.71 48.1348 112.138 48.2135 112.566 48.2135C113.11 48.2135 113.537 48.1348 113.809 47.9382C114.082 47.7416 114.237 47.5056 114.237 47.1517C114.237 46.9157 114.159 46.7191 114.004 46.5618C113.848 46.4045 113.654 46.2865 113.46 46.2079C113.265 46.1292 112.915 46.0506 112.527 45.9326C112.021 45.8146 111.594 45.6966 111.283 45.5787C110.972 45.4607 110.7 45.264 110.466 44.9888C110.233 44.7135 110.117 44.3989 110.117 43.9663C110.117 43.6124 110.194 43.2584 110.389 42.9831C110.583 42.7079 110.855 42.4719 111.244 42.2753C111.633 42.0787 112.099 42 112.682 42C113.071 42 113.46 42.0393 113.848 42.1573C114.237 42.2753 114.548 42.3933 114.859 42.5899L114.548 43.3764C114.276 43.1798 113.965 43.0618 113.654 42.9438C113.343 42.8652 113.032 42.7865 112.721 42.7865C112.177 42.7865 111.749 42.9045 111.477 43.1011C111.205 43.2978 111.05 43.573 111.05 43.8876C111.05 44.1236 111.127 44.3202 111.283 44.4775C111.438 44.6348 111.633 44.7528 111.866 44.8315C112.099 44.9101 112.41 44.9888 112.799 45.1067C113.304 45.2247 113.732 45.3427 114.043 45.4607C114.354 45.5787 114.626 45.7753 114.859 46.0112C115.092 46.2472 115.209 46.6011 115.209 47.0337C115.209 47.3876 115.131 47.7022 114.937 48.0169C114.742 48.3315 114.431 48.5674 114.043 48.7247C113.654 48.882 113.149 49 112.604 49C112.099 49 111.594 48.9213 111.127 48.764Z" fill="#034EA2"/>
<path d="M121.545 48.0955V48.9606H116.647V42.0786H121.428V42.9438H117.619V45.0281H121.001V45.8539H117.619V48.0561H121.545V48.0955Z" fill="#034EA2"/>
<path d="M123.1 42.0786H124.072V48.0561H127.726V48.9213H123.1V42.0786Z" fill="#034EA2"/>
<path d="M129.786 42.9438V45.3427H133.168V46.1685H129.786V48.9213H128.814V42.0786H133.595V42.9438H129.786Z" fill="#034EA2"/>
<path d="M134.489 45.854H137.094V46.6798H134.489V45.854Z" fill="#034EA2"/>
<path d="M139.698 42.9438H137.366V42.0786H142.963V42.9438H140.631V48.9213H139.659V42.9438H139.698Z" fill="#034EA2"/>
<path d="M148.911 48.0955V48.9606H144.013V42.0786H148.794V42.9438H144.985V45.0281H148.367V45.8539H144.985V48.0561H148.911V48.0955Z" fill="#034EA2"/>
<path d="M151.01 48.764C150.544 48.6067 150.155 48.4101 149.883 48.1348L150.233 47.3876C150.505 47.6236 150.816 47.8202 151.204 47.9775C151.593 48.1348 152.021 48.2135 152.448 48.2135C152.992 48.2135 153.42 48.1348 153.692 47.9382C153.964 47.7416 154.12 47.5056 154.12 47.1517C154.12 46.9157 154.042 46.7191 153.886 46.5618C153.731 46.4045 153.537 46.2865 153.342 46.2079C153.148 46.1292 152.798 46.0506 152.409 45.9326C151.904 45.8146 151.476 45.6966 151.165 45.5787C150.854 45.4607 150.582 45.264 150.349 44.9888C150.116 44.7135 149.999 44.3989 149.999 43.9663C149.999 43.6124 150.077 43.2584 150.271 42.9831C150.466 42.7079 150.738 42.4719 151.127 42.2753C151.515 42.0787 151.982 42 152.565 42C152.954 42 153.342 42.0393 153.731 42.1573C154.12 42.2753 154.431 42.3933 154.742 42.5899L154.431 43.3764C154.159 43.1798 153.848 43.0618 153.537 42.9438C153.226 42.8652 152.915 42.7865 152.604 42.7865C152.06 42.7865 151.632 42.9045 151.36 43.1011C151.088 43.2978 150.932 43.573 150.932 43.8876C150.932 44.1236 151.01 44.3202 151.165 44.4775C151.321 44.6348 151.515 44.7528 151.749 44.8315C151.982 44.9101 152.293 44.9888 152.681 45.1067C153.187 45.2247 153.614 45.3427 153.925 45.4607C154.236 45.5787 154.508 45.7753 154.742 46.0112C154.975 46.2472 155.092 46.6011 155.092 47.0337C155.092 47.3876 155.014 47.7022 154.819 48.0169C154.625 48.3315 154.314 48.5674 153.925 48.7247C153.537 48.882 153.031 49 152.487 49C151.943 49 151.476 48.9213 151.01 48.764Z" fill="#034EA2"/>
<path d="M157.735 42.9438H155.402V42.0786H161V42.9438H158.668V48.9213H157.696V42.9438H157.735Z" fill="#034EA2"/>
</svg>
